<?xml version="1.0" encoding="UTF-8"?>
<svg xmlns="http://www.w3.org/2000/svg" xmlns:xlink="http://www.w3.org/1999/xlink" width="140pt" height="159pt" viewBox="0 0 140 159">
<defs>
<g>
<g id="glyph-0-0">
<path d="M 7.65625 -4.375 C 7.65625 -6.015625 6.546875 -7.015625 4.890625 -7.015625 C 2.25 -7.015625 0.328125 -4.546875 0.328125 -2.40625 C 0.328125 -0.734375 1.515625 0.1875 3.09375 0.1875 C 5.734375 0.1875 7.65625 -2.1875 7.65625 -4.375 Z M 3.1875 -0.15625 C 2.78125 -0.15625 2.34375 -0.296875 2 -0.65625 C 1.609375 -1.0625 1.515625 -1.671875 1.515625 -2.125 C 1.515625 -2.6875 1.734375 -4.375 2.578125 -5.453125 C 3.265625 -6.34375 4.15625 -6.671875 4.8125 -6.671875 C 5.71875 -6.671875 6.53125 -6.09375 6.53125 -4.796875 C 6.53125 -4.140625 6.21875 -2.546875 5.46875 -1.515625 C 4.71875 -0.46875 3.84375 -0.15625 3.1875 -0.15625 Z M 3.1875 -0.15625 "/>
</g>
<g id="glyph-1-0">
<path d="M 3.109375 -5.015625 L 3.109375 2.703125 C 3.398438 2.984375 3.757812 3.1875 4.1875 3.3125 C 4.625 3.445312 5.117188 3.515625 5.671875 3.515625 C 6.941406 3.515625 7.578125 3.28125 7.578125 2.8125 L 7.578125 1.390625 L 8.5 1.375 L 8.5 2.890625 C 8.5 3.390625 8.140625 3.789062 7.421875 4.09375 C 6.878906 4.28125 6.296875 4.382812 5.671875 4.40625 C 5.378906 4.382812 5.066406 4.347656 4.734375 4.296875 C 4.398438 4.242188 4.039062 4.164062 3.65625 4.0625 C 2.71875 3.726562 2.25 3.328125 2.25 2.859375 L 2.25 -4.4375 C 2.25 -4.71875 2.09375 -4.890625 1.78125 -4.953125 C 1.6875 -4.960938 1.59375 -4.96875 1.5 -4.96875 C 1.363281 -4.96875 1.226562 -4.953125 1.09375 -4.921875 C 1.0625 -4.910156 1.03125 -4.90625 1 -4.90625 C 0.78125 -4.90625 0.65625 -5.039062 0.625 -5.3125 C 0.625 -5.53125 0.726562 -5.847656 0.9375 -6.265625 C 1 -6.359375 1.078125 -6.472656 1.171875 -6.609375 C 1.265625 -6.753906 1.375 -6.914062 1.5 -7.09375 C 1.632812 -7.238281 1.753906 -7.359375 1.859375 -7.453125 C 1.941406 -7.535156 2.050781 -7.578125 2.1875 -7.578125 C 2.320312 -7.578125 2.535156 -7.488281 2.828125 -7.3125 C 3.117188 -7.132812 3.3125 -7.039062 3.40625 -7.03125 C 3.4375 -7.007812 3.476562 -6.992188 3.53125 -6.984375 C 3.582031 -6.960938 3.640625 -6.945312 3.703125 -6.9375 C 3.703125 -6.664062 3.617188 -6.4375 3.453125 -6.25 C 3.328125 -6.15625 3.203125 -6.109375 3.078125 -6.109375 C 2.941406 -6.109375 2.78125 -6.160156 2.59375 -6.265625 C 2.414062 -6.378906 2.289062 -6.4375 2.21875 -6.4375 C 1.90625 -6.4375 1.707031 -6.203125 1.625 -5.734375 C 1.65625 -5.734375 1.695312 -5.738281 1.75 -5.75 L 1.90625 -5.75 C 2.1875 -5.75 2.457031 -5.675781 2.71875 -5.53125 C 2.976562 -5.40625 3.109375 -5.234375 3.109375 -5.015625 Z M 3.109375 -5.015625 "/>
</g>
<g id="glyph-1-1">
<path d="M 6.328125 -6.296875 C 5.992188 -5.921875 5.472656 -5.734375 4.765625 -5.734375 L 4.625 -5.734375 C 3.976562 -5.847656 3.5 -6.0625 3.1875 -6.375 L 2.21875 -5.703125 C 2.363281 -5.585938 2.492188 -5.457031 2.609375 -5.3125 L 2.609375 -1 L 4.21875 -2.09375 L 5.875 -1 L 5.875 -4.96875 L 6.734375 -4.96875 L 6.734375 0 L 5.875 0 L 4.25 -1.125 L 2.578125 0 L 1.71875 0 L 1.71875 -4.953125 C 1.71875 -5.222656 1.429688 -5.488281 0.859375 -5.75 L 3.265625 -7.578125 C 3.328125 -7.492188 3.554688 -7.332031 3.953125 -7.09375 C 4.328125 -6.863281 4.582031 -6.75 4.71875 -6.75 C 4.851562 -6.726562 4.96875 -6.71875 5.0625 -6.71875 C 5.382812 -6.71875 5.628906 -6.8125 5.796875 -7 C 5.921875 -7.164062 5.984375 -7.367188 5.984375 -7.609375 C 5.984375 -7.742188 5.960938 -7.890625 5.921875 -8.046875 C 5.867188 -8.253906 5.800781 -8.441406 5.71875 -8.609375 C 5.71875 -8.816406 5.804688 -8.953125 5.984375 -9.015625 C 6.023438 -9.035156 6.070312 -9.046875 6.125 -9.046875 C 6.269531 -9.046875 6.398438 -8.957031 6.515625 -8.78125 C 6.554688 -8.707031 6.625 -8.539062 6.71875 -8.28125 C 6.75 -8.101562 6.765625 -7.90625 6.765625 -7.6875 C 6.765625 -7.050781 6.617188 -6.585938 6.328125 -6.296875 Z M 6.328125 -6.296875 "/>
</g>
<g id="glyph-1-2">
<path d="M -0.890625 8.15625 C -0.890625 8.28125 -1.015625 8.34375 -1.265625 8.34375 C -1.523438 8.34375 -1.671875 8.28125 -1.703125 8.15625 L -1.703125 6.109375 C -1.703125 6.003906 -1.765625 5.910156 -1.890625 5.828125 C -2.003906 5.753906 -2.0625 5.691406 -2.0625 5.640625 C -2.0625 5.285156 -1.847656 5.109375 -1.421875 5.109375 C -1.347656 5.109375 -1.273438 5.128906 -1.203125 5.171875 C -1.148438 5.203125 -1.101562 5.242188 -1.0625 5.296875 C -1 5.347656 -0.953125 5.398438 -0.921875 5.453125 C -0.898438 5.523438 -0.890625 5.585938 -0.890625 5.640625 Z M -0.890625 8.15625 "/>
</g>
<g id="glyph-1-3">
<path d="M 6.796875 0 L 6.0625 0 L 4.3125 -1.140625 L 2.578125 0 L 1.84375 0 L 1.84375 -4.203125 C 1.570312 -4.203125 1.4375 -4.066406 1.4375 -3.796875 C 1.425781 -3.734375 1.421875 -3.675781 1.421875 -3.625 C 1.421875 -3.488281 1.4375 -3.390625 1.46875 -3.328125 C 1.5 -3.234375 1.582031 -3.160156 1.71875 -3.109375 C 1.664062 -2.941406 1.570312 -2.835938 1.4375 -2.796875 C 1.394531 -2.796875 1.351562 -2.796875 1.3125 -2.796875 C 1.125 -2.796875 0.96875 -2.867188 0.84375 -3.015625 C 0.695312 -3.140625 0.625 -3.328125 0.625 -3.578125 L 0.625 -3.6875 C 0.625 -4.070312 0.753906 -4.40625 1.015625 -4.6875 C 1.273438 -4.9375 1.535156 -5.0625 1.796875 -5.0625 L 2.25 -5.0625 C 2.488281 -5.0625 2.644531 -4.914062 2.71875 -4.625 L 2.71875 -0.96875 L 4.3125 -2.015625 L 5.921875 -0.96875 L 5.921875 -4.53125 C 5.921875 -4.570312 5.898438 -4.601562 5.859375 -4.625 C 5.828125 -4.644531 5.78125 -4.664062 5.71875 -4.6875 C 5.65625 -4.707031 5.601562 -4.726562 5.5625 -4.75 C 5.425781 -4.820312 5.285156 -4.90625 5.140625 -5 C 4.898438 -4.945312 4.675781 -4.921875 4.46875 -4.921875 C 4.257812 -4.921875 4.0625 -4.9375 3.875 -4.96875 C 2.664062 -5.300781 1.988281 -5.835938 1.84375 -6.578125 L 1.84375 -8.34375 C 1.84375 -8.519531 1.789062 -8.640625 1.6875 -8.703125 C 1.582031 -8.753906 1.53125 -8.804688 1.53125 -8.859375 C 1.53125 -9.046875 1.695312 -9.140625 2.03125 -9.140625 C 2.488281 -9.140625 2.71875 -8.863281 2.71875 -8.3125 L 2.71875 -6.9375 C 2.71875 -6.632812 2.863281 -6.367188 3.15625 -6.140625 C 3.414062 -5.929688 3.773438 -5.773438 4.234375 -5.671875 C 4.179688 -5.742188 4.144531 -5.804688 4.125 -5.859375 C 4.09375 -5.910156 4.066406 -5.960938 4.046875 -6.015625 C 4.023438 -6.109375 4.015625 -6.203125 4.015625 -6.296875 C 4.015625 -6.597656 4.101562 -6.867188 4.28125 -7.109375 C 4.53125 -7.421875 4.851562 -7.578125 5.25 -7.578125 C 5.5625 -7.578125 5.835938 -7.472656 6.078125 -7.265625 C 6.347656 -7.054688 6.484375 -6.804688 6.484375 -6.515625 C 6.484375 -6.109375 6.328125 -5.742188 6.015625 -5.421875 C 6.078125 -5.359375 6.179688 -5.285156 6.328125 -5.203125 C 6.441406 -5.109375 6.597656 -5.015625 6.796875 -4.921875 Z M 5.234375 -6.796875 C 4.953125 -6.796875 4.8125 -6.640625 4.8125 -6.328125 C 4.851562 -6.046875 4.972656 -5.863281 5.171875 -5.78125 C 5.523438 -5.957031 5.703125 -6.128906 5.703125 -6.296875 L 5.703125 -6.390625 C 5.703125 -6.472656 5.679688 -6.554688 5.640625 -6.640625 C 5.566406 -6.742188 5.429688 -6.796875 5.234375 -6.796875 Z M 5.234375 -6.796875 "/>
</g>
<g id="glyph-1-4">
<path d="M 6.359375 -3.21875 L 6.359375 0 L 5.5 0 C 5 -0.71875 4.421875 -1.078125 3.765625 -1.078125 C 3.242188 -1.078125 2.738281 -0.71875 2.25 0 L 1.375 0 L 1.375 -3.1875 L 2.234375 -3.1875 L 2.234375 -1.234375 C 2.617188 -1.617188 3.113281 -1.84375 3.71875 -1.90625 C 3.789062 -1.914062 3.863281 -1.921875 3.9375 -1.921875 C 4.5 -1.921875 5.019531 -1.65625 5.5 -1.125 L 5.484375 -2.796875 C 5.367188 -2.890625 5.175781 -2.984375 4.90625 -3.078125 C 4.570312 -3.203125 4.003906 -3.3125 3.203125 -3.40625 C 2.003906 -3.570312 1.375 -4.179688 1.3125 -5.234375 C 1.3125 -5.628906 1.375 -5.972656 1.5 -6.265625 C 1.625 -6.566406 1.804688 -6.8125 2.046875 -7 C 2.273438 -7.195312 2.546875 -7.347656 2.859375 -7.453125 C 3.171875 -7.535156 3.519531 -7.578125 3.90625 -7.578125 C 4.757812 -7.578125 5.394531 -7.394531 5.8125 -7.03125 C 6.226562 -6.65625 6.4375 -6.171875 6.4375 -5.578125 C 6.4375 -5.398438 6.410156 -5.25 6.359375 -5.125 C 6.296875 -5.007812 6.21875 -4.914062 6.125 -4.84375 C 6.039062 -4.75 5.945312 -4.6875 5.84375 -4.65625 C 5.738281 -4.601562 5.640625 -4.578125 5.546875 -4.578125 C 5.304688 -4.578125 5.144531 -4.65625 5.0625 -4.8125 C 4.988281 -4.914062 4.953125 -5.039062 4.953125 -5.1875 C 4.953125 -5.25 4.957031 -5.316406 4.96875 -5.390625 C 5.113281 -5.316406 5.226562 -5.28125 5.3125 -5.28125 C 5.488281 -5.28125 5.578125 -5.410156 5.578125 -5.671875 C 5.578125 -5.898438 5.460938 -6.128906 5.234375 -6.359375 C 5.015625 -6.578125 4.585938 -6.695312 3.953125 -6.71875 C 2.960938 -6.695312 2.378906 -6.359375 2.203125 -5.703125 C 2.171875 -5.554688 2.15625 -5.414062 2.15625 -5.28125 C 2.15625 -5 2.25 -4.769531 2.4375 -4.59375 C 2.738281 -4.382812 3.132812 -4.253906 3.625 -4.203125 C 4.945312 -4.109375 5.859375 -3.78125 6.359375 -3.21875 Z M 6.359375 -3.21875 "/>
</g>
<g id="glyph-1-5">
<path d="M 0 -11.171875 C 0.0195312 -11.054688 0.03125 -10.9375 0.03125 -10.8125 C 0.03125 -10.40625 -0.09375 -9.988281 -0.34375 -9.5625 C -0.5 -9.3125 -0.617188 -9.125 -0.703125 -9 C -0.898438 -8.75 -1.078125 -8.617188 -1.234375 -8.609375 C -1.265625 -8.597656 -1.300781 -8.59375 -1.34375 -8.59375 C -1.457031 -8.59375 -1.59375 -8.625 -1.75 -8.6875 C -1.925781 -8.769531 -2.140625 -8.859375 -2.390625 -8.953125 C -2.628906 -9.015625 -2.894531 -9.082031 -3.1875 -9.15625 C -3.65625 -9.289062 -4.128906 -9.359375 -4.609375 -9.359375 C -4.785156 -9.359375 -4.945312 -9.34375 -5.09375 -9.3125 C -5.144531 -9.300781 -5.1875 -9.296875 -5.21875 -9.296875 C -5.53125 -9.296875 -5.71875 -9.429688 -5.78125 -9.703125 L -5.78125 -9.890625 C -5.789062 -9.941406 -5.796875 -9.992188 -5.796875 -10.046875 C -5.796875 -10.640625 -5.570312 -11.125 -5.125 -11.5 C -4.707031 -11.90625 -4.203125 -12.109375 -3.609375 -12.109375 C -2.992188 -12.109375 -2.4375 -11.921875 -1.9375 -11.546875 C -1.445312 -11.160156 -1.160156 -10.671875 -1.078125 -10.078125 L -1.078125 -10.03125 C -1.078125 -9.976562 -1.050781 -9.90625 -1 -9.8125 C -0.957031 -9.789062 -0.921875 -9.78125 -0.890625 -9.78125 C -0.734375 -9.78125 -0.65625 -10.078125 -0.65625 -10.671875 C -0.664062 -10.742188 -0.691406 -10.8125 -0.734375 -10.875 C -0.785156 -10.9375 -0.832031 -11 -0.875 -11.0625 C -0.914062 -11.113281 -0.957031 -11.164062 -1 -11.21875 C -1.050781 -11.269531 -1.078125 -11.3125 -1.078125 -11.34375 L -1.078125 -11.40625 C -1.078125 -11.519531 -1.039062 -11.632812 -0.96875 -11.75 C -0.90625 -11.863281 -0.800781 -11.929688 -0.65625 -11.953125 C -0.632812 -11.960938 -0.609375 -11.96875 -0.578125 -11.96875 C -0.285156 -11.96875 -0.09375 -11.703125 0 -11.171875 Z M -1.75 -9.5625 C -2.082031 -10.539062 -2.597656 -11.066406 -3.296875 -11.140625 C -3.390625 -11.148438 -3.472656 -11.15625 -3.546875 -11.15625 C -4.222656 -11.15625 -4.65625 -10.835938 -4.84375 -10.203125 C -4.695312 -10.210938 -4.546875 -10.21875 -4.390625 -10.21875 C -3.597656 -10.21875 -2.71875 -10 -1.75 -9.5625 Z M -1.75 -9.5625 "/>
</g>
<g id="glyph-1-6">
<path d="M 3.015625 -3.734375 L 6.265625 -3.734375 L 6.265625 -4.4375 C 6.265625 -4.71875 6.109375 -4.890625 5.796875 -4.953125 C 5.703125 -4.960938 5.601562 -4.96875 5.5 -4.96875 C 5.375 -4.96875 5.242188 -4.953125 5.109375 -4.921875 C 5.078125 -4.910156 5.039062 -4.90625 5 -4.90625 C 4.789062 -4.90625 4.671875 -5.039062 4.640625 -5.3125 C 4.640625 -5.53125 4.742188 -5.847656 4.953125 -6.265625 C 5.003906 -6.359375 5.085938 -6.472656 5.203125 -6.609375 C 5.273438 -6.753906 5.375 -6.914062 5.5 -7.09375 C 5.644531 -7.238281 5.769531 -7.359375 5.875 -7.453125 C 5.957031 -7.535156 6.070312 -7.578125 6.21875 -7.578125 C 6.332031 -7.578125 6.535156 -7.488281 6.828125 -7.3125 C 7.128906 -7.132812 7.320312 -7.039062 7.40625 -7.03125 C 7.445312 -7.007812 7.492188 -6.992188 7.546875 -6.984375 C 7.597656 -6.960938 7.65625 -6.945312 7.71875 -6.9375 C 7.71875 -6.664062 7.632812 -6.4375 7.46875 -6.25 C 7.34375 -6.15625 7.21875 -6.109375 7.09375 -6.109375 C 6.957031 -6.109375 6.796875 -6.160156 6.609375 -6.265625 C 6.429688 -6.378906 6.3125 -6.4375 6.25 -6.4375 C 5.925781 -6.4375 5.722656 -6.203125 5.640625 -5.734375 C 5.671875 -5.734375 5.710938 -5.738281 5.765625 -5.75 L 5.921875 -5.75 C 6.203125 -5.75 6.472656 -5.675781 6.734375 -5.53125 C 6.992188 -5.394531 7.125 -5.222656 7.125 -5.015625 L 7.125 -1.125 C 7.125 -0.351562 6.316406 0.03125 4.703125 0.03125 C 2.992188 0.03125 2.140625 -0.359375 2.140625 -1.140625 L 2.140625 -4.4375 C 2.140625 -4.71875 1.984375 -4.890625 1.671875 -4.953125 C 1.578125 -4.960938 1.484375 -4.96875 1.390625 -4.96875 C 1.253906 -4.96875 1.125 -4.953125 1 -4.921875 C 0.957031 -4.910156 0.921875 -4.90625 0.890625 -4.90625 C 0.671875 -4.90625 0.546875 -5.039062 0.515625 -5.3125 C 0.515625 -5.53125 0.625 -5.847656 0.84375 -6.265625 C 0.894531 -6.359375 0.972656 -6.472656 1.078125 -6.609375 C 1.160156 -6.753906 1.265625 -6.914062 1.390625 -7.09375 C 1.523438 -7.238281 1.644531 -7.359375 1.75 -7.453125 C 1.84375 -7.535156 1.957031 -7.578125 2.09375 -7.578125 C 2.21875 -7.578125 2.425781 -7.488281 2.71875 -7.3125 C 3.019531 -7.132812 3.210938 -7.039062 3.296875 -7.03125 C 3.328125 -7.007812 3.375 -6.992188 3.4375 -6.984375 C 3.476562 -6.960938 3.535156 -6.945312 3.609375 -6.9375 C 3.609375 -6.664062 3.519531 -6.4375 3.34375 -6.25 C 3.226562 -6.15625 3.109375 -6.109375 2.984375 -6.109375 C 2.835938 -6.109375 2.671875 -6.160156 2.484375 -6.265625 C 2.304688 -6.378906 2.1875 -6.4375 2.125 -6.4375 C 1.8125 -6.4375 1.609375 -6.203125 1.515625 -5.734375 C 1.546875 -5.734375 1.59375 -5.738281 1.65625 -5.75 L 1.8125 -5.75 C 2.082031 -5.75 2.347656 -5.675781 2.609375 -5.53125 C 2.878906 -5.394531 3.015625 -5.222656 3.015625 -5.015625 Z M 3.015625 -3.015625 L 3.015625 -1.4375 C 3.015625 -0.957031 3.59375 -0.71875 4.75 -0.71875 C 5.757812 -0.71875 6.265625 -0.957031 6.265625 -1.4375 L 6.265625 -3.015625 Z M 3.015625 -3.015625 "/>
</g>
<g id="glyph-1-7">
<path d="M -0.8125 4.140625 C -0.8125 4.335938 -0.914062 4.4375 -1.125 4.4375 C -1.394531 4.4375 -1.582031 4.382812 -1.6875 4.28125 L -2.328125 3.796875 L -2.890625 4.28125 C -3.003906 4.382812 -3.160156 4.4375 -3.359375 4.4375 L -3.40625 4.4375 C -3.488281 4.4375 -3.566406 4.398438 -3.640625 4.328125 C -3.734375 4.234375 -3.78125 4.132812 -3.78125 4.03125 L -3.78125 1.78125 C -3.78125 1.664062 -3.835938 1.570312 -3.953125 1.5 C -4.078125 1.4375 -4.140625 1.367188 -4.140625 1.296875 L -4.140625 1.265625 C -4.140625 0.941406 -3.929688 0.78125 -3.515625 0.78125 C -3.140625 0.78125 -2.953125 0.953125 -2.953125 1.296875 L -2.953125 3.59375 L -2.328125 2.984375 L -1.640625 3.65625 L -1.640625 1.109375 C -1.566406 0.984375 -1.441406 0.910156 -1.265625 0.890625 C -1.128906 0.890625 -0.976562 0.945312 -0.8125 1.0625 Z M -0.8125 4.140625 "/>
</g>
<g id="glyph-1-8">
<path d="M 2.671875 -6.21875 C 2.671875 -6.675781 2.503906 -6.90625 2.171875 -6.90625 L 2.171875 -5.859375 C 2.222656 -5.835938 2.273438 -5.828125 2.328125 -5.828125 C 2.429688 -5.828125 2.507812 -5.851562 2.5625 -5.90625 C 2.632812 -5.976562 2.671875 -6.082031 2.671875 -6.21875 Z M 9.421875 -4.4375 C 9.421875 -4.71875 9.265625 -4.890625 8.953125 -4.953125 C 8.867188 -4.960938 8.773438 -4.96875 8.671875 -4.96875 C 8.546875 -4.96875 8.414062 -4.953125 8.28125 -4.921875 C 8.25 -4.910156 8.210938 -4.90625 8.171875 -4.90625 C 7.953125 -4.90625 7.832031 -5.039062 7.8125 -5.3125 C 7.8125 -5.53125 7.914062 -5.847656 8.125 -6.265625 C 8.175781 -6.359375 8.253906 -6.472656 8.359375 -6.609375 C 8.441406 -6.753906 8.546875 -6.914062 8.671875 -7.09375 C 8.816406 -7.238281 8.941406 -7.359375 9.046875 -7.453125 C 9.128906 -7.535156 9.238281 -7.578125 9.375 -7.578125 C 9.5 -7.578125 9.707031 -7.488281 10 -7.3125 C 10.300781 -7.132812 10.492188 -7.039062 10.578125 -7.03125 C 10.609375 -7.007812 10.65625 -6.992188 10.71875 -6.984375 C 10.769531 -6.960938 10.828125 -6.945312 10.890625 -6.9375 C 10.890625 -6.664062 10.800781 -6.4375 10.625 -6.25 C 10.507812 -6.15625 10.390625 -6.109375 10.265625 -6.109375 C 10.128906 -6.109375 9.96875 -6.160156 9.78125 -6.265625 C 9.601562 -6.378906 9.476562 -6.4375 9.40625 -6.4375 C 9.09375 -6.4375 8.890625 -6.203125 8.796875 -5.734375 C 8.835938 -5.734375 8.882812 -5.738281 8.9375 -5.75 L 9.09375 -5.75 C 9.375 -5.75 9.640625 -5.675781 9.890625 -5.53125 C 10.160156 -5.40625 10.296875 -5.234375 10.296875 -5.015625 L 10.296875 -1.34375 C 10.296875 -1.039062 10.128906 -0.75 9.796875 -0.46875 C 9.335938 -0.132812 8.742188 0.03125 8.015625 0.03125 C 7.109375 0.03125 6.378906 -0.117188 5.828125 -0.421875 C 5.160156 -0.140625 4.523438 0.0078125 3.921875 0.03125 C 3.253906 0.03125 2.648438 -0.09375 2.109375 -0.34375 C 1.578125 -0.601562 1.3125 -0.9375 1.3125 -1.34375 L 1.3125 -7 C 1.3125 -7.382812 1.582031 -7.578125 2.125 -7.578125 L 2.265625 -7.578125 C 2.640625 -7.492188 2.894531 -7.347656 3.03125 -7.140625 C 3.164062 -6.910156 3.253906 -6.601562 3.296875 -6.21875 C 3.296875 -6.164062 3.296875 -6.117188 3.296875 -6.078125 C 3.296875 -5.765625 3.195312 -5.523438 3 -5.359375 C 2.820312 -5.210938 2.617188 -5.140625 2.390625 -5.140625 C 2.316406 -5.140625 2.242188 -5.144531 2.171875 -5.15625 L 2.171875 -1.5 C 2.171875 -1.300781 2.34375 -1.144531 2.6875 -1.03125 C 3.03125 -0.882812 3.425781 -0.8125 3.875 -0.8125 C 4.269531 -0.8125 4.617188 -0.882812 4.921875 -1.03125 C 5.234375 -1.132812 5.390625 -1.289062 5.390625 -1.5 L 5.390625 -4.4375 C 5.390625 -4.71875 5.226562 -4.890625 4.90625 -4.953125 C 4.8125 -4.960938 4.71875 -4.96875 4.625 -4.96875 C 4.488281 -4.96875 4.351562 -4.953125 4.21875 -4.921875 C 4.1875 -4.910156 4.15625 -4.90625 4.125 -4.90625 C 3.90625 -4.90625 3.78125 -5.039062 3.75 -5.3125 C 3.75 -5.53125 3.851562 -5.847656 4.0625 -6.265625 C 4.125 -6.359375 4.207031 -6.472656 4.3125 -6.609375 C 4.394531 -6.753906 4.5 -6.914062 4.625 -7.09375 C 4.757812 -7.238281 4.878906 -7.359375 4.984375 -7.453125 C 5.066406 -7.535156 5.175781 -7.578125 5.3125 -7.578125 C 5.4375 -7.578125 5.648438 -7.488281 5.953125 -7.3125 C 6.242188 -7.132812 6.429688 -7.039062 6.515625 -7.03125 C 6.554688 -7.007812 6.601562 -6.992188 6.65625 -6.984375 C 6.707031 -6.960938 6.765625 -6.945312 6.828125 -6.9375 C 6.828125 -6.664062 6.742188 -6.4375 6.578125 -6.25 C 6.453125 -6.15625 6.332031 -6.109375 6.21875 -6.109375 C 6.070312 -6.109375 5.90625 -6.160156 5.71875 -6.265625 C 5.539062 -6.378906 5.421875 -6.4375 5.359375 -6.4375 C 5.035156 -6.4375 4.832031 -6.203125 4.75 -5.734375 C 4.78125 -5.734375 4.820312 -5.738281 4.875 -5.75 L 5.03125 -5.75 C 5.3125 -5.75 5.582031 -5.675781 5.84375 -5.53125 C 6.113281 -5.394531 6.25 -5.222656 6.25 -5.015625 L 6.25 -1.5 C 6.25 -1.289062 6.4375 -1.132812 6.8125 -1.03125 C 7.1875 -0.882812 7.5625 -0.8125 7.9375 -0.8125 C 8.351562 -0.8125 8.703125 -0.882812 8.984375 -1.03125 C 9.273438 -1.15625 9.421875 -1.3125 9.421875 -1.5 Z M 9.421875 -4.4375 "/>
</g>
<g id="glyph-1-9">
<path d="M 6.296875 -6.71875 L 6.296875 0.03125 C 6.296875 0.425781 6.109375 0.816406 5.734375 1.203125 C 5.367188 1.566406 4.96875 1.84375 4.53125 2.03125 L 3.84375 1.5 C 4.894531 1.03125 5.421875 0.429688 5.421875 -0.296875 L 5.421875 -5.953125 C 5.421875 -6.160156 5.347656 -6.316406 5.203125 -6.421875 C 5.117188 -6.472656 5.039062 -6.5 4.96875 -6.5 C 4.925781 -6.5 4.882812 -6.488281 4.84375 -6.46875 L 3.734375 -5.75 C 3.671875 -5.800781 3.550781 -5.878906 3.375 -5.984375 C 3.1875 -6.085938 2.9375 -6.238281 2.625 -6.4375 C 2.570312 -6.457031 2.535156 -6.46875 2.515625 -6.46875 C 2.285156 -6.46875 2.171875 -6.304688 2.171875 -5.984375 L 2.171875 -5.578125 C 2.171875 -5.273438 2.273438 -5.101562 2.484375 -5.0625 L 2.890625 -5.171875 C 3.097656 -5.171875 3.203125 -5.023438 3.203125 -4.734375 C 3.203125 -4.222656 2.894531 -3.96875 2.28125 -3.96875 C 2.164062 -3.96875 2.050781 -4.003906 1.9375 -4.078125 C 1.8125 -4.128906 1.707031 -4.207031 1.625 -4.3125 C 1.519531 -4.394531 1.441406 -4.507812 1.390625 -4.65625 C 1.335938 -4.78125 1.3125 -4.910156 1.3125 -5.046875 L 1.3125 -6.71875 C 1.800781 -7.113281 2.191406 -7.398438 2.484375 -7.578125 C 2.628906 -7.578125 2.847656 -7.484375 3.140625 -7.296875 C 3.523438 -7.054688 3.734375 -6.90625 3.765625 -6.84375 C 4.160156 -7.0625 4.394531 -7.191406 4.46875 -7.234375 C 4.539062 -7.273438 4.734375 -7.390625 5.046875 -7.578125 C 5.296875 -7.578125 5.710938 -7.289062 6.296875 -6.71875 Z M 6.296875 -6.71875 "/>
</g>
<g id="glyph-1-10">
<path d="M 7.703125 0 L 6.921875 0 L 6.921875 -3.203125 C 6.921875 -3.535156 6.894531 -3.785156 6.84375 -3.953125 C 6.800781 -4.117188 6.691406 -4.269531 6.515625 -4.40625 C 6.335938 -4.539062 6.140625 -4.609375 5.921875 -4.609375 C 5.617188 -4.609375 5.320312 -4.46875 5.03125 -4.1875 C 4.75 -3.90625 4.609375 -3.476562 4.609375 -2.90625 L 4.609375 0 L 3.84375 0 L 3.84375 -3.390625 C 3.84375 -3.847656 3.734375 -4.171875 3.515625 -4.359375 C 3.296875 -4.546875 3.066406 -4.640625 2.828125 -4.640625 C 2.492188 -4.640625 2.195312 -4.488281 1.9375 -4.1875 C 1.6875 -3.894531 1.5625 -3.523438 1.5625 -3.078125 L 1.5625 0 L 0.796875 0 L 0.796875 -5.15625 L 1.484375 -5.15625 L 1.484375 -4.171875 C 1.867188 -4.921875 2.398438 -5.296875 3.078125 -5.296875 C 3.453125 -5.296875 3.765625 -5.175781 4.015625 -4.9375 C 4.273438 -4.695312 4.441406 -4.40625 4.515625 -4.0625 C 4.867188 -4.882812 5.414062 -5.296875 6.15625 -5.296875 C 6.5 -5.296875 6.800781 -5.195312 7.0625 -5 C 7.332031 -4.800781 7.503906 -4.570312 7.578125 -4.3125 C 7.660156 -4.050781 7.703125 -3.679688 7.703125 -3.203125 Z M 7.703125 0 "/>
</g>
<g id="glyph-2-0">
<path d="M 1.46875 -5.4375 C 1.671875 -5.390625 1.828125 -5.34375 2.078125 -5.34375 C 3.578125 -5.34375 4.453125 -6.1875 4.453125 -6.46875 C 4.453125 -6.5625 4.390625 -6.59375 4.328125 -6.59375 C 4.3125 -6.59375 4.28125 -6.59375 4.203125 -6.546875 C 3.703125 -6.3125 3.203125 -6.28125 2.765625 -6.28125 C 2.296875 -6.28125 1.828125 -6.375 1.40625 -6.53125 C 1.234375 -6.59375 1.21875 -6.59375 1.203125 -6.59375 C 1.0625 -6.59375 1.0625 -6.484375 1.0625 -6.328125 L 1.0625 -3.40625 C 1.0625 -3.234375 1.0625 -3.109375 1.234375 -3.109375 C 1.328125 -3.109375 1.359375 -3.15625 1.421875 -3.234375 C 1.6875 -3.578125 2.140625 -3.859375 2.75 -3.859375 C 3.765625 -3.859375 3.765625 -2.578125 3.765625 -2.046875 C 3.765625 -1.6875 3.765625 -1.140625 3.515625 -0.734375 C 3.265625 -0.3125 2.84375 -0.15625 2.453125 -0.15625 C 1.890625 -0.15625 1.25 -0.453125 1 -1.09375 C 1.25 -1 1.6875 -1.15625 1.6875 -1.625 C 1.6875 -2 1.390625 -2.15625 1.109375 -2.15625 C 0.8125 -2.15625 0.53125 -1.90625 0.53125 -1.53125 C 0.53125 -0.65625 1.3125 0.171875 2.46875 0.171875 C 3.84375 0.171875 4.890625 -0.640625 4.890625 -2 C 4.890625 -3.203125 4.09375 -4.140625 2.78125 -4.140625 C 2.375 -4.140625 1.859375 -4.03125 1.46875 -3.703125 Z M 1.46875 -5.4375 "/>
</g>
</g>
</defs>
<path fill-rule="nonzero" fill="rgb(90.194702%, 94.900513%, 94.119263%)" fill-opacity="1" stroke-width="1.19553" stroke-linecap="butt" stroke-linejoin="miter" stroke="rgb(23.136902%, 52.549744%, 52.549744%)" stroke-opacity="1" stroke-miterlimit="10" d="M 27.117125 65.470094 L -27.11725 65.470094 L -65.468813 27.118531 L -65.468813 -27.11975 L -27.11725 -65.471312 L 27.117125 -65.471312 L 65.468687 -27.11975 L 65.468687 27.118531 Z M 27.117125 65.470094 " transform="matrix(1, 0, 0, -1, 69.961, 69.974)"/>
<path fill-rule="nonzero" fill="rgb(17.298889%, 39.199829%, 39.199829%)" fill-opacity="1" d="M 98.761719 3.90625 C 98.761719 3.113281 98.117188 2.472656 97.328125 2.472656 C 96.535156 2.472656 95.890625 3.113281 95.890625 3.90625 C 95.890625 4.699219 96.535156 5.339844 97.328125 5.339844 C 98.117188 5.339844 98.761719 4.699219 98.761719 3.90625 Z M 98.761719 3.90625 "/>
<path fill-rule="nonzero" fill="rgb(17.298889%, 39.199829%, 39.199829%)" fill-opacity="1" d="M 44.03125 3.90625 C 44.03125 3.113281 43.386719 2.472656 42.59375 2.472656 C 41.804688 2.472656 41.160156 3.113281 41.160156 3.90625 C 41.160156 4.699219 41.804688 5.339844 42.59375 5.339844 C 43.386719 5.339844 44.03125 4.699219 44.03125 3.90625 Z M 44.03125 3.90625 "/>
<path fill-rule="nonzero" fill="rgb(17.298889%, 39.199829%, 39.199829%)" fill-opacity="1" d="M 5.328125 42.609375 C 5.328125 41.816406 4.6875 41.175781 3.894531 41.175781 C 3.101562 41.175781 2.457031 41.816406 2.457031 42.609375 C 2.457031 43.402344 3.101562 44.042969 3.894531 44.042969 C 4.6875 44.042969 5.328125 43.402344 5.328125 42.609375 Z M 5.328125 42.609375 "/>
<path fill-rule="nonzero" fill="rgb(17.298889%, 39.199829%, 39.199829%)" fill-opacity="1" d="M 5.328125 97.339844 C 5.328125 96.546875 4.6875 95.90625 3.894531 95.90625 C 3.101562 95.90625 2.457031 96.546875 2.457031 97.339844 C 2.457031 98.132812 3.101562 98.773438 3.894531 98.773438 C 4.6875 98.773438 5.328125 98.132812 5.328125 97.339844 Z M 5.328125 97.339844 "/>
<path fill-rule="nonzero" fill="rgb(17.298889%, 39.199829%, 39.199829%)" fill-opacity="1" d="M 44.03125 136.042969 C 44.03125 135.25 43.386719 134.605469 42.59375 134.605469 C 41.804688 134.605469 41.160156 135.25 41.160156 136.042969 C 41.160156 136.835938 41.804688 137.476562 42.59375 137.476562 C 43.386719 137.476562 44.03125 136.835938 44.03125 136.042969 Z M 44.03125 136.042969 "/>
<path fill-rule="nonzero" fill="rgb(17.298889%, 39.199829%, 39.199829%)" fill-opacity="1" d="M 98.761719 136.042969 C 98.761719 135.25 98.117188 134.605469 97.328125 134.605469 C 96.535156 134.605469 95.890625 135.25 95.890625 136.042969 C 95.890625 136.835938 96.535156 137.476562 97.328125 137.476562 C 98.117188 137.476562 98.761719 136.835938 98.761719 136.042969 Z M 98.761719 136.042969 "/>
<path fill-rule="nonzero" fill="rgb(17.298889%, 39.199829%, 39.199829%)" fill-opacity="1" d="M 137.464844 97.339844 C 137.464844 96.546875 136.820312 95.90625 136.027344 95.90625 C 135.238281 95.90625 134.59375 96.546875 134.59375 97.339844 C 134.59375 98.132812 135.238281 98.773438 136.027344 98.773438 C 136.820312 98.773438 137.464844 98.132812 137.464844 97.339844 Z M 137.464844 97.339844 "/>
<path fill-rule="nonzero" fill="rgb(17.298889%, 39.199829%, 39.199829%)" fill-opacity="1" d="M 137.464844 42.609375 C 137.464844 41.816406 136.820312 41.175781 136.027344 41.175781 C 135.238281 41.175781 134.59375 41.816406 134.59375 42.609375 C 134.59375 43.402344 135.238281 44.042969 136.027344 44.042969 C 136.820312 44.042969 137.464844 43.402344 137.464844 42.609375 Z M 137.464844 42.609375 "/>
<path fill="none" stroke-width="0.79701" stroke-linecap="butt" stroke-linejoin="miter" stroke="rgb(90.99884%, 44.699097%, 36.099243%)" stroke-opacity="1" stroke-miterlimit="10" d="M 27.367125 66.06775 L -0.0000625 0.00134375 L -27.36725 66.06775 " transform="matrix(1, 0, 0, -1, 69.961, 69.974)"/>
<g fill="rgb(0%, 0%, 0%)" fill-opacity="1">
<use xlink:href="#glyph-0-0" x="65.966" y="73.386"/>
</g>
<g fill="rgb(0%, 0%, 0%)" fill-opacity="1">
<use xlink:href="#glyph-1-0" x="33.071" y="148.144"/>
<use xlink:href="#glyph-1-1" x="37.485458" y="148.144"/>
<use xlink:href="#glyph-1-2" x="45.310136" y="148.144"/>
<use xlink:href="#glyph-1-3" x="45.310136" y="148.144"/>
<use xlink:href="#glyph-1-4" x="53.385874" y="148.144"/>
</g>
<g fill="rgb(0%, 0%, 0%)" fill-opacity="1">
<use xlink:href="#glyph-1-5" x="59.264843" y="148.144"/>
</g>
<g fill="rgb(0%, 0%, 0%)" fill-opacity="1">
<use xlink:href="#glyph-1-6" x="61.074562" y="148.144"/>
</g>
<g fill="rgb(0%, 0%, 0%)" fill-opacity="1">
<use xlink:href="#glyph-1-7" x="67.97869" y="148.144"/>
</g>
<g fill="rgb(0%, 0%, 0%)" fill-opacity="1">
<use xlink:href="#glyph-1-8" x="69.485045" y="148.144"/>
<use xlink:href="#glyph-1-9" x="81.05469" y="148.144"/>
</g>
<g fill="rgb(0%, 0%, 0%)" fill-opacity="1">
<use xlink:href="#glyph-2-0" x="91.254" y="148.144"/>
</g>
<g fill="rgb(0%, 0%, 0%)" fill-opacity="1">
<use xlink:href="#glyph-1-10" x="98.334" y="148.144"/>
</g>
</svg>
